<svg class="main-svg" xmlns="http://www.w3.org/2000/svg" xmlns:xlink="http://www.w3.org/1999/xlink" width="800" height="500" style="" viewBox="0 0 800 500"><rect x="0" y="0" width="800" height="500" style="fill: rgb(0, 0, 0); fill-opacity: 0;"/><defs id="defs-7b1117"><g class="clips"><clipPath id="clip7b1117xyplot" class="plotclip"><rect width="640" height="296"/></clipPath><clipPath class="axesclip" id="clip7b1117x"><rect x="80" y="0" width="640" height="500"/></clipPath><clipPath class="axesclip" id="clip7b1117y"><rect x="0" y="60" width="800" height="296"/></clipPath><clipPath class="axesclip" id="clip7b1117xy"><rect x="80" y="60" width="640" height="296"/></clipPath></g><g class="gradients"/><g class="patterns"/></defs><g class="bglayer"><rect class="bg" x="80" y="60" width="640" height="296" style="fill: rgb(0, 0, 0); fill-opacity: 0; stroke-width: 0;"/></g><g class="layer-below"><g class="imagelayer"/><g class="shapelayer"/></g><g class="cartesianlayer"><g class="subplot xy"><g class="layer-subplot"><g class="shapelayer"/><g class="imagelayer"/></g><g class="minor-gridlayer"><g class="x"/><g class="y"/></g><g class="gridlayer"><g class="x"/><g class="y"/></g><g class="zerolinelayer"><path class="yzl zl crisp" transform="translate(0,333.87)" d="M80,0h640" style="stroke: rgb(0, 0, 0); stroke-opacity: 1; stroke-width: 1px;"/></g><path class="xlines-below"/><path class="ylines-below"/><g class="overlines-below"/><g class="xaxislayer-below"/><g class="yaxislayer-below"/><g class="overaxes-below"/><g class="plot" transform="translate(80,60)" clip-path="url(#clip7b1117xyplot)"><g class="scatterlayer mlayer"><g class="trace scatter traced8e4c4" style="stroke-miterlimit: 2; opacity: 1;"><g class="fills"/><g class="errorbars"/><g class="lines"><path class="js-line" d="M0,266.34L13.06,266.73L26.12,268.91L39.18,272.49L52.24,274.26L91.43,275.04L104.49,275.06L143.67,274.77L156.73,275.6L169.8,275.36L182.86,274.12L222.04,273.53L235.1,273.28L248.16,272.3L261.22,272.29L287.35,271.31L300.41,269.89L326.53,268.66L339.59,266.53L352.65,263.01L365.71,258.12L378.78,251.48L391.84,242.98L404.9,232.23L417.96,220.42L457.14,188.23L470.2,181.6L483.27,174.81L496.33,169.24L509.39,163.14L522.45,159.21L548.57,154.93L561.63,153.62L574.69,150.83L587.76,148.99L613.88,146.71L626.94,144.23L640,143.51" style="vector-effect: non-scaling-stroke; fill: none; stroke: rgb(0, 0, 1); stroke-opacity: 1; stroke-width: 2px; opacity: 1;"/></g><g class="points"/><g class="text"/></g><g class="trace scatter trace881d02" style="stroke-miterlimit: 2; opacity: 1;"><g class="fills"/><g class="errorbars"/><g class="lines"><path class="js-line" d="M0,269.81L13.06,270.01L26.12,271.99L52.24,273.07L65.31,274.65L130.61,275.05L143.67,274.35L182.86,272.86L195.92,272.48L222.04,271.36L235.1,269.78L248.16,267.86L261.22,267.22L287.35,265.66L300.41,264.42L326.53,260.86L339.59,258.34L352.65,254.04L365.71,246.87L378.78,238.23L391.84,228.24L404.9,216.27L417.96,202.32L444.08,173.87L457.14,161.74L470.2,150.63L483.27,138.2L496.33,124.46L509.39,113.63L522.45,102.75L535.51,93.91L574.69,77.84L587.76,73.53L626.94,64.11L640,61.25" style="vector-effect: non-scaling-stroke; fill: none; stroke: rgb(0, 0, 1); stroke-opacity: 1; stroke-width: 2px; opacity: 1;"/></g><g class="points"/><g class="text"/></g><g class="trace scatter trace48d43f" style="stroke-miterlimit: 2; opacity: 1;"><g class="fills"/><g class="errorbars"/><g class="lines"><path class="js-line" d="M0,256.37L13.06,257.59L26.12,262.89L52.24,269.81L65.31,271.38L91.43,275.55L104.49,276L117.55,275.22L130.61,275.36L182.86,275.59L195.92,275.97L208.98,275.32L222.04,275.6L248.16,275.93L261.22,276.48L339.59,274.7L352.65,275.32L391.84,275.83L404.9,274.79L431.02,272.89L444.08,273.62L457.14,274.2L470.2,272.78L496.33,272.38L509.39,272.4L522.45,272.91L535.51,272.1L548.57,272.4L561.63,271.8L587.76,273.11L600.82,272.7L613.88,272.61L626.94,273.49L640,274.01" style="vector-effect: non-scaling-stroke; fill: none; stroke: rgb(0, 0, 2); stroke-opacity: 1; stroke-width: 2px; opacity: 1;"/></g><g class="points"/><g class="text"/></g><g class="trace scatter trace637be3" style="stroke-miterlimit: 2; opacity: 1;"><g class="fills"/><g class="errorbars"/><g class="lines"><path class="js-line" d="M0,257.21L13.06,258.78L26.12,262.26L65.31,270.38L78.37,272L130.61,276.25L143.67,276.68L169.8,276.95L182.86,277.46L195.92,277.42L208.98,276.51L235.1,275.79L248.16,276.9L261.22,277.1L274.29,276.09L300.41,277.25L313.47,276.83L378.78,274.88L391.84,274.19L404.9,272.89L417.96,272.35L444.08,272.29L457.14,273.99L470.2,274.41L483.27,272.82L509.39,273.06L522.45,273.55L548.57,273.32L561.63,271.65L600.82,271.45L613.88,272L626.94,272.32L640,271.4" style="vector-effect: non-scaling-stroke; fill: none; stroke: rgb(0, 0, 2); stroke-opacity: 1; stroke-width: 2px; opacity: 1;"/></g><g class="points"/><g class="text"/></g><g class="trace scatter traced1e8ab" style="stroke-miterlimit: 2; opacity: 1;"><g class="fills"/><g class="errorbars"/><g class="lines"><path class="js-line" d="M0,253.04L13.06,257.36L26.12,262.61L39.18,265.36L52.24,270.62L65.31,273.25L78.37,273.56L91.43,273.39L104.49,277.35L117.55,278.65L130.61,279.17L143.67,278.91L156.73,276.59L169.8,274.23L182.86,273.92L195.92,274.16L208.98,275.73L235.1,276.28L248.16,275.86L261.22,273.62L274.29,272.67L326.53,272.29L339.59,273.41L352.65,274.46L365.71,276.95L391.84,277.38L404.9,276.28L417.96,272.08L431.02,270.84L444.08,273.99L457.14,275.19L470.2,275.83L483.27,275.5L496.33,274.14L509.39,273.76L561.63,272.29L574.69,273.54L587.76,273.7L600.82,272.86L613.88,270.75L626.94,271.24L640,271.48" style="vector-effect: non-scaling-stroke; fill: none; stroke: rgb(0, 0, 3); stroke-opacity: 1; stroke-width: 2px; opacity: 1;"/></g><g class="points"/><g class="text"/></g><g class="trace scatter traceeaeed8" style="stroke-miterlimit: 2; opacity: 1;"><g class="fills"/><g class="errorbars"/><g class="lines"><path class="js-line" d="M0,251.43L13.06,253.83L26.12,257.57L39.18,264.43L52.24,270.28L65.31,272.35L78.37,275.83L104.49,276.9L117.55,276.87L130.61,277.69L143.67,281.2L156.73,281.2L169.8,278.89L182.86,277.57L195.92,278.51L222.04,277.53L235.1,276.31L248.16,273.05L261.22,272.12L274.29,274.13L287.35,274.2L313.47,272.06L326.53,270.06L352.65,268.14L365.71,270.52L378.78,270.27L391.84,267.72L404.9,265.39L417.96,261.17L431.02,252.29L444.08,235.98L457.14,220.6L470.2,198.08L496.33,149.71L509.39,125.27L535.51,83.93L548.57,75.21L574.69,49.3L587.76,41.97L600.82,33.51L613.88,28.17L626.94,19.53L640,14.8" style="vector-effect: non-scaling-stroke; fill: none; stroke: rgb(0, 0, 3); stroke-opacity: 1; stroke-width: 2px; opacity: 1;"/></g><g class="points"/><g class="text"/></g></g></g><g class="overplot"/><path class="xlines-above crisp" d="M0,0" style="fill: none;"/><path class="ylines-above crisp" d="M0,0" style="fill: none;"/><g class="overlines-above"/><g class="xaxislayer-above"><g class="xtick"><text text-anchor="middle" x="0" y="375" transform="translate(197.55,0)" style="font-family: arial; font-size: 18px; fill: rgb(0, 0, 0); fill-opacity: 1; white-space: pre; opacity: 1;">10</text></g><g class="xtick"><text text-anchor="middle" x="0" y="375" style="font-family: arial; font-size: 18px; fill: rgb(0, 0, 0); fill-opacity: 1; white-space: pre; opacity: 1;" transform="translate(328.15999999999997,0)">20</text></g><g class="xtick"><text text-anchor="middle" x="0" y="375" style="font-family: arial; font-size: 18px; fill: rgb(0, 0, 0); fill-opacity: 1; white-space: pre; opacity: 1;" transform="translate(458.78,0)">30</text></g><g class="xtick"><text text-anchor="middle" x="0" y="375" style="font-family: arial; font-size: 18px; fill: rgb(0, 0, 0); fill-opacity: 1; white-space: pre; opacity: 1;" transform="translate(589.39,0)">40</text></g><g class="xtick"><text text-anchor="middle" x="0" y="375" style="font-family: arial; font-size: 18px; fill: rgb(0, 0, 0); fill-opacity: 1; white-space: pre; opacity: 1;" transform="translate(720,0)">50</text></g></g><g class="yaxislayer-above"><g class="ytick"><text text-anchor="end" x="79" y="6.3" transform="translate(0,333.87)" style="font-family: arial; font-size: 18px; fill: rgb(0, 0, 0); fill-opacity: 1; white-space: pre; opacity: 1;">0</text></g><g class="ytick"><text text-anchor="end" x="79" y="6.3" style="font-family: arial; font-size: 18px; fill: rgb(0, 0, 0); fill-opacity: 1; white-space: pre; opacity: 1;" transform="translate(0,274.93)">20k</text></g><g class="ytick"><text text-anchor="end" x="79" y="6.3" style="font-family: arial; font-size: 18px; fill: rgb(0, 0, 0); fill-opacity: 1; white-space: pre; opacity: 1;" transform="translate(0,215.98)">40k</text></g><g class="ytick"><text text-anchor="end" x="79" y="6.3" style="font-family: arial; font-size: 18px; fill: rgb(0, 0, 0); fill-opacity: 1; white-space: pre; opacity: 1;" transform="translate(0,157.04000000000002)">60k</text></g><g class="ytick"><text text-anchor="end" x="79" y="6.3" style="font-family: arial; font-size: 18px; fill: rgb(0, 0, 0); fill-opacity: 1; white-space: pre; opacity: 1;" transform="translate(0,98.09)">80k</text></g></g><g class="overaxes-above"/></g></g><g class="polarlayer"/><g class="smithlayer"/><g class="ternarylayer"/><g class="geolayer"/><g class="funnelarealayer"/><g class="pielayer"/><g class="iciclelayer"/><g class="treemaplayer"/><g class="sunburstlayer"/><g class="glimages"/><defs id="topdefs-7b1117"><g class="clips"/><clipPath id="legend7b1117"><rect width="434" height="37" x="0" y="0"/></clipPath></defs><g class="layer-above"><g class="imagelayer"/><g class="shapelayer"/></g><g class="infolayer"><g class="legend" pointer-events="all" transform="translate(183,450.72)"><rect class="bg" shape-rendering="crispEdges" width="434" height="37" x="0" y="0" style="stroke: rgb(68, 68, 68); stroke-opacity: 1; fill: rgb(0, 0, 0); fill-opacity: 0; stroke-width: 0px;"/><g class="scrollbox" transform="" clip-path="url(#legend7b1117)"><g class="groups" transform=""><g class="traces" transform="translate(0,18.200000000000003)" style="opacity: 1;"><text class="legendtext" text-anchor="start" x="40" y="7.0200000000000005" style="font-family: arial; font-size: 18px; fill: rgb(0, 0, 0); fill-opacity: 1; white-space: pre;">BL001_ECF</text><g class="layers" style="opacity: 1;"><g class="legendfill"/><g class="legendlines"><path class="js-line" d="M5,0h30" style="fill: none; stroke: rgb(0, 0, 1); stroke-opacity: 1; stroke-width: 2px;"/></g><g class="legendsymbols"><g class="legendpoints"/></g></g><rect class="legendtoggle" x="0" y="-13.200000000000001" width="140.5" height="26.400000000000002" style="fill: rgb(0, 0, 0); fill-opacity: 0;"/></g></g><g class="groups" transform="translate(143,0)"><g class="traces" transform="translate(0,18.200000000000003)" style="opacity: 1;"><text class="legendtext" text-anchor="start" x="40" y="7.0200000000000005" style="font-family: arial; font-size: 18px; fill: rgb(0, 0, 0); fill-opacity: 1; white-space: pre;">BL001_IMP</text><g class="layers" style="opacity: 1;"><g class="legendfill"/><g class="legendlines"><path class="js-line" d="M5,0h30" style="fill: none; stroke: rgb(0, 0, 2); stroke-opacity: 1; stroke-width: 2px;"/></g><g class="legendsymbols"><g class="legendpoints"/></g></g><rect class="legendtoggle" x="0" y="-13.200000000000001" width="138.5" height="26.400000000000002" style="fill: rgb(0, 0, 0); fill-opacity: 0;"/></g></g><g class="groups" transform="translate(284,0)"><g class="traces" transform="translate(0,18.200000000000003)" style="opacity: 1;"><text class="legendtext" text-anchor="start" x="40" y="7.0200000000000005" style="font-family: arial; font-size: 18px; fill: rgb(0, 0, 0); fill-opacity: 1; white-space: pre;">BL001_CMY</text><g class="layers" style="opacity: 1;"><g class="legendfill"/><g class="legendlines"><path class="js-line" d="M5,0h30" style="fill: none; stroke: rgb(0, 0, 3); stroke-opacity: 1; stroke-width: 2px;"/></g><g class="legendsymbols"><g class="legendpoints"/></g></g><rect class="legendtoggle" x="0" y="-13.200000000000001" width="147.5" height="26.400000000000002" style="fill: rgb(0, 0, 0); fill-opacity: 0;"/></g></g></g><rect class="scrollbar" rx="20" ry="3" width="0" height="0" x="0" y="0" style="fill: rgb(128, 139, 164); fill-opacity: 1;"/></g><g class="g-gtitle"/><g class="g-xtitle"><text class="xtitle" x="400" y="432" text-anchor="middle" style="font-family: arial; font-size: 22px; fill: rgb(0, 0, 0); opacity: 1; font-weight: normal; white-space: pre;">Cycle</text></g><g class="g-ytitle"><text class="ytitle" transform="rotate(-90,26,208)" x="26" y="208" text-anchor="middle" style="font-family: arial; font-size: 22px; fill: rgb(0, 0, 0); opacity: 1; font-weight: normal; white-space: pre;">RFU</text></g></g></svg>