<svg class="main-svg" xmlns="http://www.w3.org/2000/svg" xmlns:xlink="http://www.w3.org/1999/xlink" width="800" height="500" style="" viewBox="0 0 800 500"><rect x="0" y="0" width="800" height="500" style="fill: rgb(0, 0, 0); fill-opacity: 0;"/><defs id="defs-aa687b"><g class="clips"><clipPath id="clipaa687bxyplot" class="plotclip"><rect width="640" height="296"/></clipPath><clipPath class="axesclip" id="clipaa687bx"><rect x="80" y="0" width="640" height="500"/></clipPath><clipPath class="axesclip" id="clipaa687by"><rect x="0" y="60" width="800" height="296"/></clipPath><clipPath class="axesclip" id="clipaa687bxy"><rect x="80" y="60" width="640" height="296"/></clipPath></g><g class="gradients"/><g class="patterns"/></defs><g class="bglayer"><rect class="bg" x="80" y="60" width="640" height="296" style="fill: rgb(0, 0, 0); fill-opacity: 0; stroke-width: 0;"/></g><g class="layer-below"><g class="imagelayer"/><g class="shapelayer"/></g><g class="cartesianlayer"><g class="subplot xy"><g class="layer-subplot"><g class="shapelayer"/><g class="imagelayer"/></g><g class="minor-gridlayer"><g class="x"/><g class="y"/></g><g class="gridlayer"><g class="x"/><g class="y"/></g><g class="zerolinelayer"><path class="yzl zl crisp" transform="translate(0,330.79)" d="M80,0h640" style="stroke: rgb(0, 0, 0); stroke-opacity: 1; stroke-width: 1px;"/></g><path class="xlines-below"/><path class="ylines-below"/><g class="overlines-below"/><g class="xaxislayer-below"/><g class="yaxislayer-below"/><g class="overaxes-below"/><g class="plot" transform="translate(80,60)" clip-path="url(#clipaa687bxyplot)"><g class="scatterlayer mlayer"><g class="trace scatter tracef3f75b" style="stroke-miterlimit: 2; opacity: 1;"><g class="fills"/><g class="errorbars"/><g class="lines"><path class="js-line" d="M0,256L13.06,256.78L26.12,261.05L39.18,268.08L52.24,271.55L78.37,272.83L91.43,273.08L143.67,272.56L156.73,274.18L169.8,273.71L182.86,271.27L208.98,269.73L222.04,270.13L235.1,269.64L248.16,267.71L274.29,267.45L287.35,265.75L300.41,262.98L313.47,262.15L326.53,260.55L339.59,256.38L352.65,249.46L365.71,239.86L378.78,226.82L391.84,210.13L404.9,189.02L417.96,165.82L444.08,122.2L457.14,102.62L483.27,76.27L496.33,65.33L509.39,53.35L522.45,45.63L535.51,40.8L548.57,37.23L561.63,34.66L574.69,29.18L587.76,25.57L600.82,22.86L613.88,21.09L626.94,16.22L640,14.8" style="vector-effect: non-scaling-stroke; fill: none; stroke: rgb(0, 0, 1); stroke-opacity: 1; stroke-width: 2px; opacity: 1;"/></g><g class="points"/><g class="text"/></g><g class="trace scatter trace3a2607" style="stroke-miterlimit: 2; opacity: 1;"><g class="fills"/><g class="errorbars"/><g class="lines"><path class="js-line" d="M0,236.43L13.06,238.82L26.12,249.23L39.18,256.61L52.24,262.82L65.31,265.9L78.37,269.99L91.43,274.1L104.49,274.98L117.55,273.44L130.61,273.71L169.8,273.51L182.86,274.17L195.92,274.9L208.98,273.64L248.16,274.84L261.22,275.9L274.29,275.34L287.35,275.59L313.47,274.83L326.53,273.06L339.59,272.41L352.65,273.63L391.84,274.65L404.9,272.6L431.02,268.86L444.08,270.3L457.14,271.44L470.2,268.65L483.27,267.73L496.33,267.85L509.39,267.91L522.45,268.89L535.51,267.32L548.57,267.9L561.63,266.72L574.69,267.77L587.76,269.29L600.82,268.5L613.88,268.31L626.94,270.04L640,271.07" style="vector-effect: non-scaling-stroke; fill: none; stroke: rgb(0, 0, 2); stroke-opacity: 1; stroke-width: 2px; opacity: 1;"/></g><g class="points"/><g class="text"/></g><g class="trace scatter trace21eb51" style="stroke-miterlimit: 2; opacity: 1;"><g class="fills"/><g class="errorbars"/><g class="lines"><path class="js-line" d="M0,229.88L13.06,238.37L26.12,248.68L39.18,254.08L52.24,264.4L65.31,269.56L78.37,270.17L91.43,269.85L104.49,277.63L117.55,280.17L130.61,281.2L143.67,280.68L156.73,276.12L169.8,271.49L182.86,270.89L195.92,271.36L208.98,274.44L222.04,275.47L235.1,275.53L248.16,274.7L261.22,270.3L274.29,268.44L287.35,268.42L313.47,267.77L326.53,267.69L352.65,271.94L365.71,276.84L378.78,277.86L391.84,277.69L404.9,275.52L417.96,267.28L431.02,264.84L444.08,271.02L457.14,273.38L470.2,274.64L483.27,273.99L496.33,271.32L535.51,268.8L548.57,267.56L561.63,267.68L574.69,270.15L587.76,270.46L600.82,268.81L613.88,264.66L626.94,265.63L640,266.09" style="vector-effect: non-scaling-stroke; fill: none; stroke: rgb(0, 0, 3); stroke-opacity: 1; stroke-width: 2px; opacity: 1;"/></g><g class="points"/><g class="text"/></g></g></g><g class="overplot"/><path class="xlines-above crisp" d="M0,0" style="fill: none;"/><path class="ylines-above crisp" d="M0,0" style="fill: none;"/><g class="overlines-above"/><g class="xaxislayer-above"><g class="xtick"><text text-anchor="middle" x="0" y="375" transform="translate(197.55,0)" style="font-family: arial; font-size: 18px; fill: rgb(0, 0, 0); fill-opacity: 1; white-space: pre; opacity: 1;">10</text></g><g class="xtick"><text text-anchor="middle" x="0" y="375" style="font-family: arial; font-size: 18px; fill: rgb(0, 0, 0); fill-opacity: 1; white-space: pre; opacity: 1;" transform="translate(328.15999999999997,0)">20</text></g><g class="xtick"><text text-anchor="middle" x="0" y="375" style="font-family: arial; font-size: 18px; fill: rgb(0, 0, 0); fill-opacity: 1; white-space: pre; opacity: 1;" transform="translate(458.78,0)">30</text></g><g class="xtick"><text text-anchor="middle" x="0" y="375" style="font-family: arial; font-size: 18px; fill: rgb(0, 0, 0); fill-opacity: 1; white-space: pre; opacity: 1;" transform="translate(589.39,0)">40</text></g><g class="xtick"><text text-anchor="middle" x="0" y="375" style="font-family: arial; font-size: 18px; fill: rgb(0, 0, 0); fill-opacity: 1; white-space: pre; opacity: 1;" transform="translate(720,0)">50</text></g></g><g class="yaxislayer-above"><g class="ytick"><text text-anchor="end" x="79" y="6.3" transform="translate(0,330.79)" style="font-family: arial; font-size: 18px; fill: rgb(0, 0, 0); fill-opacity: 1; white-space: pre; opacity: 1;">0</text></g><g class="ytick"><text text-anchor="end" x="79" y="6.3" style="font-family: arial; font-size: 18px; fill: rgb(0, 0, 0); fill-opacity: 1; white-space: pre; opacity: 1;" transform="translate(0,272.91999999999996)">10k</text></g><g class="ytick"><text text-anchor="end" x="79" y="6.3" style="font-family: arial; font-size: 18px; fill: rgb(0, 0, 0); fill-opacity: 1; white-space: pre; opacity: 1;" transform="translate(0,215.04)">20k</text></g><g class="ytick"><text text-anchor="end" x="79" y="6.3" style="font-family: arial; font-size: 18px; fill: rgb(0, 0, 0); fill-opacity: 1; white-space: pre; opacity: 1;" transform="translate(0,157.17000000000002)">30k</text></g><g class="ytick"><text text-anchor="end" x="79" y="6.3" style="font-family: arial; font-size: 18px; fill: rgb(0, 0, 0); fill-opacity: 1; white-space: pre; opacity: 1;" transform="translate(0,99.3)">40k</text></g></g><g class="overaxes-above"/></g></g><g class="polarlayer"/><g class="smithlayer"/><g class="ternarylayer"/><g class="geolayer"/><g class="funnelarealayer"/><g class="pielayer"/><g class="iciclelayer"/><g class="treemaplayer"/><g class="sunburstlayer"/><g class="glimages"/><defs id="topdefs-aa687b"><g class="clips"/><clipPath id="legendaa687b"><rect width="434" height="37" x="0" y="0"/></clipPath></defs><g class="layer-above"><g class="imagelayer"/><g class="shapelayer"/></g><g class="infolayer"><g class="legend" pointer-events="all" transform="translate(183,450.72)"><rect class="bg" shape-rendering="crispEdges" style="stroke: rgb(68, 68, 68); stroke-opacity: 1; fill: rgb(0, 0, 0); fill-opacity: 0; stroke-width: 0px;" width="434" height="37" x="0" y="0"/><g class="scrollbox" transform="" clip-path="url(#legendaa687b)"><g class="groups" transform=""><g class="traces" transform="translate(0,18.200000000000003)" style="opacity: 1;"><text class="legendtext" text-anchor="start" x="40" y="7.0200000000000005" style="font-family: arial; font-size: 18px; fill: rgb(0, 0, 0); fill-opacity: 1; white-space: pre;">BL001_ECF</text><g class="layers" style="opacity: 1;"><g class="legendfill"/><g class="legendlines"><path class="js-line" d="M5,0h30" style="fill: none; stroke: rgb(0, 0, 1); stroke-opacity: 1; stroke-width: 2px;"/></g><g class="legendsymbols"><g class="legendpoints"/></g></g><rect class="legendtoggle" x="0" y="-13.200000000000001" width="140.5" height="26.400000000000002" style="fill: rgb(0, 0, 0); fill-opacity: 0;"/></g></g><g class="groups" transform="translate(143,0)"><g class="traces" transform="translate(0,18.200000000000003)" style="opacity: 1;"><text class="legendtext" text-anchor="start" x="40" y="7.0200000000000005" style="font-family: arial; font-size: 18px; fill: rgb(0, 0, 0); fill-opacity: 1; white-space: pre;">BL001_IMP</text><g class="layers" style="opacity: 1;"><g class="legendfill"/><g class="legendlines"><path class="js-line" d="M5,0h30" style="fill: none; stroke: rgb(0, 0, 2); stroke-opacity: 1; stroke-width: 2px;"/></g><g class="legendsymbols"><g class="legendpoints"/></g></g><rect class="legendtoggle" x="0" y="-13.200000000000001" width="138.5" height="26.400000000000002" style="fill: rgb(0, 0, 0); fill-opacity: 0;"/></g></g><g class="groups" transform="translate(284,0)"><g class="traces" transform="translate(0,18.200000000000003)" style="opacity: 1;"><text class="legendtext" text-anchor="start" x="40" y="7.0200000000000005" style="font-family: arial; font-size: 18px; fill: rgb(0, 0, 0); fill-opacity: 1; white-space: pre;">BL001_CMY</text><g class="layers" style="opacity: 1;"><g class="legendfill"/><g class="legendlines"><path class="js-line" d="M5,0h30" style="fill: none; stroke: rgb(0, 0, 3); stroke-opacity: 1; stroke-width: 2px;"/></g><g class="legendsymbols"><g class="legendpoints"/></g></g><rect class="legendtoggle" x="0" y="-13.200000000000001" width="147.5" height="26.400000000000002" style="fill: rgb(0, 0, 0); fill-opacity: 0;"/></g></g></g><rect class="scrollbar" rx="20" ry="3" width="0" height="0" style="fill: rgb(128, 139, 164); fill-opacity: 1;" x="0" y="0"/></g><g class="g-gtitle"/><g class="g-xtitle"><text class="xtitle" x="400" y="432" text-anchor="middle" style="font-family: arial; font-size: 22px; fill: rgb(0, 0, 0); opacity: 1; font-weight: normal; white-space: pre;">Cycle</text></g><g class="g-ytitle"><text class="ytitle" transform="rotate(-90,26,208)" x="26" y="208" text-anchor="middle" style="font-family: arial; font-size: 22px; fill: rgb(0, 0, 0); opacity: 1; font-weight: normal; white-space: pre;">RFU</text></g></g></svg>